<svg version="1.2" baseProfile="tiny-ps" xmlns="http://www.w3.org/2000/svg" viewBox="0 0 24 21" width="24" height="21">
	<title>repositories-svg</title>
	<style>
		tspan { white-space:pre }
		.shp0 { fill: #000000 } 
	</style>
	<path id="Layer" fill-rule="evenodd" class="shp0" d="M19.2 21L4.8 21C3.47 21 2.4 19.96 2.4 18.67L2.4 7C1.07 7 0 5.96 0 4.67L0 2.33C0 1.04 1.07 0 2.4 0L21.6 0C22.93 0 24 1.04 24 2.33L24 4.67C24 5.96 22.93 7 21.6 7L21.6 18.67C21.6 19.96 20.53 21 19.2 21ZM19.2 18.67L19.2 7L4.8 7L4.8 18.67L19.2 18.67ZM8.4 10.5L8.4 8.17L15.6 8.17L15.6 10.5L8.4 10.5ZM21.6 4.67L21.6 2.33L2.4 2.33L2.4 4.67L21.6 4.67Z" />
	<path id="Layer copy" fill-rule="evenodd" class="shp0" d="M19.2 21L4.8 21C3.47 21 2.4 19.96 2.4 18.67L2.4 7C1.07 7 0 5.96 0 4.67L0 2.33C0 1.04 1.07 0 2.4 0L21.6 0C22.93 0 24 1.04 24 2.33L24 4.67C24 5.96 22.93 7 21.6 7L21.6 18.67C21.6 19.96 20.53 21 19.2 21ZM19.2 18.67L19.2 7L4.8 7L4.8 18.67L19.2 18.67ZM8.4 10.5L8.4 8.17L15.6 8.17L15.6 10.5L8.4 10.5ZM21.6 4.67L21.6 2.33L2.4 2.33L2.4 4.67L21.6 4.67Z" />
	<path id="Layer copy 2" fill-rule="evenodd" class="shp0" d="M19.2 21L4.8 21C3.47 21 2.4 19.96 2.4 18.67L2.4 7C1.07 7 0 5.96 0 4.67L0 2.33C0 1.04 1.07 0 2.4 0L21.6 0C22.93 0 24 1.04 24 2.33L24 4.67C24 5.96 22.93 7 21.6 7L21.6 18.67C21.6 19.96 20.53 21 19.2 21ZM19.2 18.67L19.2 7L4.8 7L4.8 18.67L19.2 18.67ZM8.4 10.5L8.4 8.17L15.6 8.17L15.6 10.5L8.4 10.5ZM21.6 4.67L21.6 2.33L2.4 2.33L2.4 4.67L21.6 4.67Z" />
</svg>